<svg xmlns="http://www.w3.org/2000/svg" width="512" height="512" viewBox="0 0 512 512" version="1.1">
	<path d="M 0 256.002 L 0 512.004 256.250 511.752 L 512.500 511.500 512.752 255.750 L 513.004 0 256.502 0 L 0 0 0 256.002 M 0.492 256.500 C 0.492 397.300, 0.608 454.751, 0.750 384.170 C 0.892 313.588, 0.892 198.388, 0.750 128.170 C 0.608 57.951, 0.492 115.700, 0.492 256.500 M 223 20.979 C 186.074 27.283, 144.499 44.395, 114 65.842 C 63.376 101.441, 28.045 157.358, 17.544 218.500 C 6.650 281.934, 23.358 349.018, 62.704 399.817 C 99.723 447.612, 156.033 480.951, 218.667 492.157 C 235.957 495.251, 275.708 495.502, 291.500 492.618 C 317.973 487.784, 341.086 480.098, 365.500 468.010 C 392.865 454.461, 413.207 440.018, 430.298 422 C 464.735 385.698, 488.298 337.812, 495.498 289.500 C 497.511 275.993, 497.486 244.097, 495.452 230.128 C 489.432 188.784, 472.459 147.299, 448.205 114.650 C 438.814 102.008, 417.630 80.810, 404.786 71.201 C 367.067 42.983, 324.678 25.320, 282.026 20.047 C 268.392 18.362, 235.268 18.885, 223 20.979 M 206.500 44.572 C 147.984 53.530, 96.799 88.636, 67.415 139.965 C 61.382 150.504, 54.960 168.912, 54.320 177.500 L 53.872 183.500 56.959 177.980 C 64.762 164.026, 85.898 138.095, 104.466 119.693 C 136.279 88.167, 173.187 65.046, 217.393 48.954 C 225.090 46.152, 228.664 44.403, 227.806 43.859 C 225.936 42.673, 216.935 42.974, 206.500 44.572 M 251.089 70.579 C 249.403 71.997, 245.476 77.734, 242.362 83.329 C 226.739 111.395, 200.295 155.851, 109.016 307.500 C 72.552 368.081, 67.987 376.374, 68.022 381.972 C 68.074 390.412, 74.354 397.831, 86.737 404.084 L 93.500 407.500 254 407.500 L 414.500 407.500 422.303 403.774 C 442.064 394.338, 446.794 386.471, 440.374 373.717 C 438.930 370.848, 426.168 349.150, 412.013 325.500 C 397.859 301.850, 380.868 273.275, 374.256 262 C 367.643 250.725, 346.058 214.500, 326.287 181.500 C 306.517 148.500, 284.388 110.925, 277.112 98 C 264.033 74.769, 259.243 68, 255.881 68 C 254.931 68, 252.774 69.160, 251.089 70.579 M 254.253 92.250 C 253.707 92.938, 246.881 104.433, 239.084 117.796 C 221.908 147.231, 191.158 198.872, 168.994 235.500 C 160.009 250.350, 147.390 271.275, 140.953 282 C 134.516 292.725, 121.408 314.550, 111.824 330.500 C 102.240 346.450, 92.015 363.642, 89.102 368.704 C 82.787 379.676, 82.206 383.661, 86.324 387.778 L 89.045 390.500 223.273 390.816 C 297.098 390.990, 372.087 390.823, 389.915 390.447 C 422.119 389.766, 422.345 389.746, 424.665 387.426 C 425.962 386.129, 427 383.887, 427 382.382 C 427 378.667, 418.768 363.427, 399.517 331.500 C 390.562 316.650, 375.813 291.900, 366.740 276.500 C 351.156 250.049, 329.641 214.028, 296.856 159.500 C 288.920 146.300, 276.616 125.488, 269.514 113.250 C 262.412 101.012, 256.296 91, 255.923 91 C 255.550 91, 254.798 91.563, 254.253 92.250 M 396 99.669 C 396 100.037, 403.539 108.025, 412.754 117.419 C 421.969 126.814, 433.781 139.575, 439.004 145.778 C 449.699 158.481, 451.788 158.501, 445.429 145.840 C 435.836 126.738, 417.617 104.220, 408.782 100.546 C 405.090 99.011, 396 98.387, 396 99.669 M 255 144.868 C 255 147.662, 195.027 252.823, 165.958 301 C 139.897 344.193, 121.901 376.235, 123.056 377.390 C 123.341 377.674, 133.682 374.419, 146.037 370.155 C 158.392 365.892, 187.932 355.911, 211.682 347.976 L 254.863 333.549 259.682 334.837 C 262.332 335.546, 277.325 340.581, 293 346.026 C 308.675 351.471, 335.225 360.387, 352 365.838 C 368.775 371.290, 384.188 376.458, 386.250 377.324 C 388.313 378.190, 390 378.629, 390 378.300 C 390 376.572, 371.677 344.795, 338.507 289 C 315.700 250.635, 294.837 214.081, 274.444 176.750 C 258.480 147.529, 255 141.822, 255 144.868 M 240.768 200.202 C 232.773 214.666, 223.760 231.450, 220.739 237.500 C 207.618 263.777, 176.506 331.839, 177.267 332.601 C 177.431 332.765, 183.176 331.109, 190.033 328.922 C 196.890 326.735, 212.400 322.203, 224.500 318.852 C 236.600 315.500, 247.287 312.535, 248.250 312.263 C 250.486 311.629, 250.450 310.604, 247.942 303.407 C 243.982 292.041, 230.255 243.438, 229.083 236.633 C 226.847 223.645, 229.855 227.090, 236.826 245.500 C 241.732 258.457, 248.847 279.759, 253.025 294 L 255.226 301.500 258.540 289.500 C 262.444 275.364, 268.991 256.726, 275.525 241.153 C 284.386 220.030, 284.145 227.427, 274.889 260.653 C 271.561 272.601, 266.871 288.704, 264.468 296.437 C 262.064 304.171, 260.479 310.879, 260.944 311.344 C 261.410 311.810, 270.500 314.591, 281.145 317.525 C 291.790 320.459, 307.813 325.069, 316.750 327.769 C 325.688 330.469, 333 332.228, 333 331.679 C 333 329.297, 298.226 252.335, 287.577 231.146 C 282.669 221.382, 257.382 176.091, 256.062 174.702 C 255.645 174.263, 248.763 185.738, 240.768 200.202 M 458 182.028 C 458 182.658, 458.986 188.566, 460.192 195.157 L 462.384 207.141 455.638 213.408 L 448.891 219.674 449.196 284.087 C 449.507 350.042, 449.967 357.802, 453.007 348.399 C 453.700 346.255, 456.860 337.523, 460.028 328.997 C 470.426 301.014, 474.032 277.595, 472.039 250.994 C 470.316 228.009, 466.099 202.025, 461.861 188.292 C 460.115 182.633, 458 179.202, 458 182.028 M 58.578 209.209 C 56.231 214.040, 55.020 215.310, 50.706 217.459 C 47.902 218.857, 45.090 220, 44.459 220 C 39.985 220, 38.105 230.817, 38.036 256.960 C 37.967 282.840, 42.654 308.260, 52.523 335.532 C 60.529 357.655, 59.915 361.749, 59.960 285.934 C 59.986 242.717, 60.383 216.297, 61.062 212.624 C 62.678 203.880, 61.773 202.635, 58.578 209.209" stroke="none" fill="black" fill-rule="evenodd"/>
</svg>