<svg xmlns="http://www.w3.org/2000/svg" style="background-color:white" width="512" height="512" viewBox="0 0 512 512" version="1.1">
	<path d="M 0 256.002 L 0 512.004 256.250 511.752 L 512.500 511.500 512.752 255.750 L 513.004 0 256.502 0 L 0 0 0 256.002 M 0.492 256.500 C 0.492 397.300, 0.608 454.751, 0.750 384.170 C 0.892 313.588, 0.892 198.388, 0.750 128.170 C 0.608 57.951, 0.492 115.700, 0.492 256.500 M 228 29.088 C 214.554 30.814, 195.213 35.793, 181.415 41.081 C 124.896 62.742, 81.624 101.534, 56.013 153.500 C 45.296 175.246, 38.192 198.327, 34.315 224 C 31.930 239.795, 31.919 273.275, 34.295 288.500 C 42.954 344.005, 73.629 395.712, 117.198 428.245 C 150.042 452.770, 183.790 467.332, 222.500 473.682 C 237.945 476.216, 275.418 476.203, 289 473.659 C 314.012 468.974, 332.102 463.009, 354.500 452.062 C 399.545 430.046, 429.138 402.235, 452.462 360 C 482.329 305.915, 487.044 242.338, 465.811 180 C 461.399 167.047, 451.193 145.258, 444.264 134 C 431.975 114.031, 414.372 93.999, 396.628 79.792 C 361.114 51.356, 323.875 34.842, 283.199 29.488 C 270.996 27.881, 239.194 27.651, 228 29.088 M 125.750 108.766 C 107.392 108.942, 98 109.383, 98 110.071 C 98 110.642, 99.877 113.874, 102.171 117.251 C 107.523 125.133, 109.670 130.880, 110.533 139.634 L 111.226 146.670 104.590 155.585 C 91.902 172.633, 80.509 199.201, 75.279 223.942 C 72.913 235.134, 72.624 238.676, 72.624 256.500 C 72.624 274.340, 72.912 277.861, 75.288 289.102 C 81.009 316.168, 91.511 338.689, 108.254 359.799 L 113.251 366.098 107.625 378.081 C 104.531 384.671, 102 390.387, 102 390.782 C 102 391.177, 171.300 391.500, 256 391.500 C 340.700 391.500, 410 391.269, 410 390.987 C 410 390.706, 407.300 385.086, 404 378.500 C 400.700 371.914, 398 366.274, 398 365.966 C 398 365.659, 400.748 361.828, 404.107 357.454 C 421.002 335.450, 432.148 309.717, 436.608 282.414 C 438.925 268.233, 438.923 242.484, 436.604 228.500 C 432.041 200.979, 420.392 172.336, 406.476 154.415 C 402.203 148.911, 402.001 148.353, 402.024 142.075 C 402.058 132.700, 403.154 129.035, 408.907 119.067 C 411.708 114.213, 414 109.975, 414 109.649 C 414 109.323, 400.275 108.931, 383.499 108.778 C 363.381 108.595, 352.999 108.845, 352.999 109.513 C 353 110.071, 354.531 112.800, 356.402 115.578 C 361.174 122.664, 361.988 126.566, 361.994 142.381 L 362 156.262 349.250 169.807 C 333.603 186.429, 305.687 215.408, 304.986 215.755 C 304.704 215.895, 302.933 213.420, 301.051 210.255 C 299.168 207.090, 288.158 189.942, 276.583 172.150 C 257.510 142.831, 255.411 139.973, 254.188 141.650 C 252.428 144.065, 220.155 193.799, 212.593 205.750 C 209.374 210.837, 206.633 215, 206.502 215 C 206.070 215, 172.563 180.743, 161.167 168.651 L 150 156.802 150 142.560 C 150 126.713, 150.930 122.251, 155.832 114.572 C 157.562 111.862, 158.870 109.562, 158.739 109.463 C 157.737 108.702, 149.845 108.535, 125.750 108.766 M 119.687 119.868 L 116.873 120.500 120.187 123.531 C 122.009 125.198, 124.526 127.418, 125.780 128.463 L 128.061 130.365 133.076 125.432 L 138.092 120.500 133.796 119.824 C 128.587 119.005, 123.462 119.021, 119.687 119.868 M 378.859 119.736 L 373.218 120.093 378.574 125.158 L 383.930 130.224 387.982 127.014 C 393.498 122.645, 394.634 120.404, 391.726 119.624 C 390.502 119.296, 388.375 119.106, 387 119.203 C 385.625 119.299, 381.962 119.539, 378.859 119.736 M 226.998 210.198 C 191.318 263.655, 184.833 273.981, 185.295 276.601 C 185.643 278.576, 250.984 378.368, 251.541 377.776 C 251.684 377.624, 251.369 363.325, 250.842 346 C 249.864 313.822, 250.557 216.579, 251.942 191.695 C 252.380 183.818, 253.194 177.406, 253.838 176.762 C 257.796 172.804, 258.161 180.462, 258.844 281.728 L 259.500 378.956 287.667 336.728 C 319.260 289.363, 326 278.609, 326 275.567 C 326 272.863, 256.911 169, 255.113 169 C 254.774 169, 242.122 187.539, 226.998 210.198 M 175.544 288.250 C 174.506 290.038, 165.037 305, 154.502 321.500 C 134.502 352.824, 120 376.278, 120 377.300 C 120 377.630, 126.637 374.050, 134.750 369.346 C 163.414 352.725, 203.524 329.086, 205.377 327.722 C 207.142 326.424, 206.434 325.184, 193.509 306.921 C 185.950 296.239, 179.544 286.938, 179.275 286.250 C 178.499 284.265, 177.568 284.764, 175.544 288.250 M 321.709 301.783 C 315.774 310.427, 309.502 319.418, 307.771 321.762 C 305.848 324.367, 304.989 326.370, 305.562 326.914 C 307.918 329.147, 390.246 376.899, 390.870 376.393 C 391.325 376.024, 379.853 357.649, 358.050 323.823 C 348.948 309.701, 339.811 295.413, 337.747 292.073 C 335.682 288.733, 333.657 286.015, 333.247 286.033 C 332.836 286.051, 327.644 293.139, 321.709 301.783" stroke="none" fill="#667eea" fill-rule="evenodd"/>
</svg>